<svg xmlns="http://www.w3.org/2000/svg" width="50" height="61.946" viewBox="0 0 50 61.946">
  <g id="Group_451" data-name="Group 451" transform="translate(-820 -1726)">
    <path id="Path_3357" data-name="Path 3357" d="M7.667,60.4,3.659,12.854H1.6A1.626,1.626,0,0,1,1.6,9.6h13.66V1.625A1.626,1.626,0,0,1,16.889,0H33.11a1.626,1.626,0,0,1,1.625,1.625V9.6h13.66a1.626,1.626,0,0,1,0,3.251H46.34l-4.012,47.6a1.625,1.625,0,0,1-1.619,1.491H9.29A1.626,1.626,0,0,1,7.667,60.4m7.78-37.466a1.626,1.626,0,0,1,3.251,0v15a1.626,1.626,0,0,1-3.251,0Zm15.854,0a1.626,1.626,0,0,1,3.251,0v15a1.626,1.626,0,0,1-3.251,0Zm-7.927,0a1.626,1.626,0,0,1,3.251,0v15a1.626,1.626,0,0,1-3.251,0ZM18.515,9.6H31.484V3.251H18.515ZM39.809,51.652H10.19l.594,7.044H39.216ZM9.916,48.4H40.083l3-35.547H6.92Z" transform="translate(820 1726)" fill="#fff"/>
  </g>
</svg>
